<?xml version="1.0" encoding="utf-8"?>
<!-- Generator: Adobe Illustrator 16.0.0, SVG Export Plug-In . SVG Version: 6.00 Build 0)  -->
<!DOCTYPE svg PUBLIC "-//W3C//DTD SVG 1.1//EN" "http://www.w3.org/Graphics/SVG/1.1/DTD/svg11.dtd">
<svg version="1.1" xmlns="http://www.w3.org/2000/svg" xmlns:xlink="http://www.w3.org/1999/xlink" x="0px" y="0px" width="750px"
	 height="500px" viewBox="0 0 750 500" enable-background="new 0 0 750 500" xml:space="preserve">
<g id="BACKGROUND">
</g>
<g id="OBJECTS">
	<g>
		<g>
			<g>
				<g>
					<g>
						<path fill="#FFFFFF" d="M127.186,313.999h-3.2c-1.199,0-2.174,0.976-2.174,2.174v3.2c0,1.199,0.976,2.175,2.174,2.175h3.2
							c1.199,0,2.174-0.976,2.174-2.175v-3.2C129.36,314.974,128.385,313.999,127.186,313.999z M127.186,320.777h-3.2
							c-0.774,0-1.404-0.63-1.404-1.404v-3.2c0-0.774,0.63-1.404,1.404-1.404h3.2c0.774,0,1.404,0.63,1.404,1.404"/>
						<path fill="#FFFFFF" d="M125.586,315.808c-1.083,0-1.964,0.882-1.964,1.965s0.881,1.964,1.964,1.964s1.964-0.881,1.964-1.964
							S126.669,315.808,125.586,315.808z M125.586,318.966c-0.658,0-1.194-0.535-1.194-1.193c0-0.659,0.536-1.194,1.194-1.194
							s1.194,0.535,1.194,1.194C126.78,318.431,126.244,318.966,125.586,318.966z"/>
						<circle fill="#FFFFFF" cx="127.55" cy="315.779" r="0.52"/>
					</g>
				</g>
			</g>
		</g>
		<g>
			
				<linearGradient id="SVGID_1_" gradientUnits="userSpaceOnUse" x1="406.6016" y1="271.9712" x2="657.7285" y2="271.9712" gradientTransform="matrix(0 -1 1 0 238.5767 803.4165)">
				<stop  offset="0" style="stop-color:#FFCB5D"/>
				<stop  offset="1" style="stop-color:#FF705D"/>
			</linearGradient>
			<path fill="url(#SVGID_1_)" d="M396.288,229.067v84.369c0,14.717,7.852,28.317,20.598,35.676l73.065,42.184
				c12.746,7.359,28.449,7.359,41.195,0l73.064-42.184c12.746-7.358,20.598-20.959,20.598-35.676v-84.369
				c0-14.718-7.852-28.317-20.598-35.676l-73.064-42.184c-12.746-7.359-28.449-7.359-41.195,0l-73.065,42.184
				C404.14,200.75,396.288,214.35,396.288,229.067z"/>
			
				<linearGradient id="SVGID_2_" gradientUnits="userSpaceOnUse" x1="125.874" y1="239.647" x2="42.1316" y2="155.9045" gradientTransform="matrix(1 0 -1 1 645.1724 0)">
				<stop  offset="0" style="stop-color:#FF5DC9"/>
				<stop  offset="1" style="stop-color:#785DFF"/>
			</linearGradient>
			<path fill="url(#SVGID_2_)" d="M461.742,273.732L461.742,273.732c-5.612,0-8.423-6.785-4.454-10.754l139.314-139.314
				c1.182-1.181,2.783-1.845,4.454-1.845l0,0c5.612,0,8.423,6.786,4.454,10.754L466.196,271.886
				C465.016,273.068,463.413,273.732,461.742,273.732z"/>
			
				<linearGradient id="SVGID_3_" gradientUnits="userSpaceOnUse" x1="176.5771" y1="354.6304" x2="92.834" y2="270.8872" gradientTransform="matrix(1 0 -1 1 645.1724 0)">
				<stop  offset="0" style="stop-color:#FF5DC9"/>
				<stop  offset="1" style="stop-color:#785DFF"/>
			</linearGradient>
			<path fill="url(#SVGID_3_)" d="M397.463,388.714L397.463,388.714c-5.612,0-8.423-6.785-4.455-10.753l139.314-139.314
				c1.182-1.182,2.784-1.845,4.455-1.845l0,0c5.611,0,8.422,6.785,4.454,10.753L401.917,386.87
				C400.735,388.051,399.133,388.714,397.463,388.714z"/>
			
				<linearGradient id="SVGID_4_" gradientUnits="userSpaceOnUse" x1="279.1201" y1="355.2407" x2="195.3777" y2="271.4983" gradientTransform="matrix(1 0 -1 1 645.1724 0)">
				<stop  offset="0" style="stop-color:#FF5DC9"/>
				<stop  offset="1" style="stop-color:#785DFF"/>
			</linearGradient>
			<path fill="url(#SVGID_4_)" d="M499.395,389.326L499.395,389.326c-5.611,0-8.422-6.785-4.454-10.754l139.314-139.314
				c1.182-1.181,2.783-1.845,4.454-1.845l0,0c5.612,0,8.423,6.785,4.454,10.754L503.849,387.48
				C502.668,388.662,501.065,389.326,499.395,389.326z"/>
			
				<linearGradient id="SVGID_5_" gradientUnits="userSpaceOnUse" x1="43.8335" y1="230.8667" x2="2.5541" y2="189.5873" gradientTransform="matrix(1 0 -1 1 645.1724 0)">
				<stop  offset="0" style="stop-color:#785DFF"/>
				<stop  offset="1" style="stop-color:#FF5DC9"/>
			</linearGradient>
			<path fill="url(#SVGID_5_)" d="M430.945,243.72L430.945,243.72c-5.612,0-8.423-6.786-4.454-10.754l54.388-54.388
				c1.182-1.181,2.783-1.845,4.454-1.845l0,0c5.612,0,8.423,6.785,4.454,10.753l-54.388,54.388
				C434.218,243.056,432.616,243.72,430.945,243.72z"/>
			
				<linearGradient id="SVGID_6_" gradientUnits="userSpaceOnUse" x1="27.1416" y1="276.0259" x2="0.0927" y2="248.977" gradientTransform="matrix(1 0 -1 1 645.1724 0)">
				<stop  offset="0" style="stop-color:#FF5DC9"/>
				<stop  offset="1" style="stop-color:#785DFF"/>
			</linearGradient>
			<path fill="url(#SVGID_6_)" d="M383.324,281.763L383.324,281.763c-5.611,0-8.422-6.785-4.454-10.753l25.928-25.928
				c1.182-1.181,2.783-1.845,4.454-1.845l0,0c5.612,0,8.423,6.785,4.454,10.753l-25.927,25.928
				C386.598,281.1,384.995,281.763,383.324,281.763z"/>
			
				<linearGradient id="SVGID_7_" gradientUnits="userSpaceOnUse" x1="207.6299" y1="390.3462" x2="185.4928" y2="368.209" gradientTransform="matrix(1 0 -1 1 645.1724 0)">
				<stop  offset="0" style="stop-color:#FF5DC9"/>
				<stop  offset="1" style="stop-color:#785DFF"/>
			</linearGradient>
			<path fill="url(#SVGID_7_)" d="M454.405,393.627L454.405,393.627c-5.612,0-8.423-6.785-4.454-10.753l16.102-16.103
				c1.182-1.182,2.784-1.845,4.454-1.845l0,0c5.612,0,8.423,6.785,4.455,10.753l-16.103,16.103
				C457.679,392.964,456.076,393.627,454.405,393.627z"/>
			
				<linearGradient id="SVGID_8_" gradientUnits="userSpaceOnUse" x1="39.8833" y1="164.7334" x2="17.7475" y2="142.5976" gradientTransform="matrix(1 0 -1 1 645.1724 0)">
				<stop  offset="0" style="stop-color:#785DFF"/>
				<stop  offset="1" style="stop-color:#FF5DC9"/>
			</linearGradient>
			<path fill="url(#SVGID_8_)" d="M512.271,168.016L512.271,168.016c-5.612,0-8.423-6.785-4.455-10.753l16.103-16.102
				c1.182-1.181,2.783-1.845,4.454-1.845l0,0c5.612,0,8.423,6.785,4.454,10.753l-16.102,16.102
				C515.544,167.352,513.941,168.016,512.271,168.016z"/>
			
				<linearGradient id="SVGID_9_" gradientUnits="userSpaceOnUse" x1="102.1143" y1="307.1821" x2="79.9778" y2="285.0457" gradientTransform="matrix(1 0 -1 1 645.1724 0)">
				<stop  offset="0" style="stop-color:#785DFF"/>
				<stop  offset="1" style="stop-color:#FF5DC9"/>
			</linearGradient>
			<path fill="url(#SVGID_9_)" d="M432.054,310.463L432.054,310.463c-5.612,0-8.423-6.785-4.454-10.753l16.102-16.102
				c1.182-1.182,2.783-1.846,4.454-1.846l0,0c5.612,0,8.423,6.785,4.454,10.754l-16.102,16.102
				C435.326,309.8,433.725,310.463,432.054,310.463z"/>
			<g>
				<path fill="#DEDEDE" d="M613.769,311.929c2.148-0.035,3.858-1.813,3.81-3.962l-3.088-134.973
					c-0.086-3.727-3.495-6.485-7.157-5.792l-160.145,30.34c-2.808,0.532-4.857,2.959-4.911,5.815l-2.114,111.412L613.769,311.929z"
					/>
				<path fill="#C2C2C2" d="M600.203,313.638l-160.818,5.567l-81.465,31.319l-0.179-2.534l-8.36,2.323l0.623,4.419l0.048-0.007
					c0.147,0.346,0.463,0.62,0.935,0.626l198.291,2.551c6.492,0.084,12.818-2.05,17.934-6.049l47.33-37.006
					c1.413-1.104,2.129-2.879,1.879-4.655l-0.193-1.371L600.203,313.638z"/>
				<path fill="#404040" d="M616.226,308.822l-3.111-135.634c-0.085-3.727-3.495-6.485-7.157-5.792l-160.145,30.34
					c-2.808,0.532-4.857,2.959-4.911,5.815l-2.114,111.413L616.226,308.822z"/>
				<linearGradient id="SVGID_10_" gradientUnits="userSpaceOnUse" x1="444.9971" y1="241.0239" x2="610" y2="241.0239">
					<stop  offset="0" style="stop-color:#FFCB5D"/>
					<stop  offset="1" style="stop-color:#FF705D"/>
				</linearGradient>
				<polygon fill="url(#SVGID_10_)" points="446.989,203.711 444.997,308.656 610,302.944 607.028,173.392 				"/>
				<g>
					<defs>
						<polygon id="SVGID_11_" points="446.989,203.711 444.997,308.656 610,302.944 607.028,173.392 						"/>
					</defs>
					<clipPath id="SVGID_12_">
						<use xlink:href="#SVGID_11_"  overflow="visible"/>
					</clipPath>
					<linearGradient id="SVGID_13_" gradientUnits="userSpaceOnUse" x1="455.502" y1="192.4058" x2="652.2764" y2="192.4058">
						<stop  offset="0" style="stop-color:#FFCB5D"/>
						<stop  offset="1" style="stop-color:#FF705D"/>
					</linearGradient>
					<path opacity="0.3" clip-path="url(#SVGID_12_)" fill="url(#SVGID_13_)" d="M496.632,180.75
						c6.901,6.192,7.924,16.625,6.959,25.847c-0.964,9.222-3.424,18.529-1.68,27.636c1.73,9.038,7.85,17.192,16.173,21.117
						c8.322,3.926,18.656,3.409,26.395-1.57c8.134-5.234,14.191-15.216,23.859-15.491c8.275-0.234,14.575,6.877,21.411,11.548
						c10.689,7.306,25.01,8.98,37.097,4.339s21.605-15.471,24.658-28.054c1.348-5.558,1.232-12.108-2.794-16.168
						c-4.004-4.037-10.4-4.232-16.063-3.722c-13.823,1.246-27.342,5.123-41.203,5.844c-13.86,0.721-28.889-2.317-38.303-12.516
						c-12.685-13.742-11.281-35.485-20.729-51.624c-6.605-11.283-18.662-19.201-31.641-20.779s-26.582,3.219-35.699,12.59
						c-5.422,5.574-9.343,12.916-9.564,20.689c-0.198,6.979,5.519,23.226,14.707,21.727c4.32-0.705,7.659-4.93,12.495-5.492
						C487.646,176.098,492.884,177.386,496.632,180.75z"/>
					<linearGradient id="SVGID_14_" gradientUnits="userSpaceOnUse" x1="360.6201" y1="286.3501" x2="603.082" y2="286.3501">
						<stop  offset="0" style="stop-color:#FFCB5D"/>
						<stop  offset="1" style="stop-color:#FF705D"/>
					</linearGradient>
					<path opacity="0.3" clip-path="url(#SVGID_12_)" fill="url(#SVGID_14_)" d="M401.402,260.037
						c3.29,6.224,10.078,10.06,17.028,11.183c6.949,1.123,14.073-0.146,20.847-2.063c17.972-5.088,34.6-14.843,47.811-28.046
						c7.493-7.489,14.157-16.255,23.627-21.004c9.469-4.75,23.094-3.647,28.146,5.665c6.188,11.404-3.871,27.089,3.148,38.001
						c3.831,5.955,11.59,8.15,18.67,8.049s14.038-2.005,21.117-2.156c7.079-0.152,14.848,1.922,18.804,7.795
						c3.586,5.324,3.073,12.722-0.178,18.257c-6.603,11.247-21.839,14.268-34.708,12.153c-12.869-2.115-24.848-8.085-37.691-10.352
						c-12.843-2.267-28.071,0.353-35.07,11.356c-5.366,8.438-4.497,19.513-8.876,28.503c-4.854,9.963-15.719,15.993-26.697,17.505
						s-22.12-0.878-32.735-4.062c-10.9-3.27-22.114-7.799-29.054-16.819c-3.696-4.806-5.86-11.784-2.51-16.838
						c3.137-4.729,10.047-6.171,12.488-11.294c2.943-6.179-2.793-13.344-9.211-15.721c-6.417-2.378-13.591-2.002-20.033-4.311
						c-8.953-3.208-15.772-12.15-15.705-21.66c0.068-9.51,7.576-18.653,17.012-19.836c6.145-0.77,12.352,1.616,17.362,5.255
						s9.018,8.461,12.969,13.23L401.402,260.037z"/>
				</g>
				<path fill="#DEDEDE" d="M438.787,314.964l177.438-6.143l-49.613,38.79c-5.115,4-11.441,6.134-17.934,6.05l-198.291-2.551
					c-1.152-0.015-1.438-1.609-0.362-2.022L438.787,314.964z"/>
				<g>
					<g>
						<path fill="#404040" d="M466.873,316.585c0.351-0.015,0.327,0.097-0.069,0.25l-2.843,1.102
							c-0.406,0.157-1.025,0.294-1.38,0.308l-5.226,0.197c-0.355,0.013-0.315-0.101,0.098-0.257l2.882-1.093
							c0.402-0.153,1.009-0.286,1.36-0.3L466.873,316.585z"/>
					</g>
					<g>
						<path fill="#404040" d="M460.626,318.857c0.362-0.014,0.313,0.106-0.102,0.267l-5.743,2.223
							c-0.435,0.168-1.074,0.312-1.441,0.323l-4.813,0.159c-0.361,0.012-0.299-0.111,0.141-0.278l5.815-2.206
							c0.42-0.159,1.045-0.299,1.401-0.313L460.626,318.857z"/>
					</g>
					<g>
						<path fill="#404040" d="M448.369,325.835c0.383-0.011,0.315,0.131-0.152,0.316l-6.484,2.56c-0.49,0.194-1.2,0.355-1.589,0.364
							l-11.354,0.25c-0.374,0.008-0.271-0.138,0.23-0.327l6.634-2.517c0.479-0.182,1.161-0.337,1.531-0.347L448.369,325.835z"/>
					</g>
					<g>
						<path fill="#404040" d="M455.619,322.192c0.373-0.012,0.314,0.118-0.125,0.291l-6.085,2.385
							c-0.46,0.18-1.129,0.332-1.508,0.343l-8.938,0.248c-0.368,0.011-0.286-0.123,0.183-0.302l6.206-2.354
							c0.447-0.17,1.101-0.317,1.463-0.329L455.619,322.192z"/>
					</g>
					<g>
						<path fill="#404040" d="M476.565,318.268c0.373-0.014,0.357,0.108-0.043,0.271l-5.542,2.265
							c-0.419,0.172-1.068,0.318-1.447,0.331l-5.056,0.167c-0.38,0.013-0.35-0.113,0.075-0.283l5.625-2.248
							c0.406-0.162,1.04-0.305,1.414-0.319L476.565,318.268z"/>
					</g>
					<g>
						<path fill="#404040" d="M463.707,321.945c0.383-0.013,0.337,0.119-0.095,0.293l-5.983,2.41
							c-0.452,0.183-1.124,0.336-1.513,0.347l-5.091,0.142c-0.383,0.011-0.32-0.125,0.138-0.306l6.064-2.391
							c0.438-0.173,1.093-0.323,1.469-0.335L463.707,321.945z"/>
					</g>
					<g>
						<path fill="#404040" d="M489.341,321.123c0.413-0.013,0.42,0.122,0.015,0.301l-5.631,2.488
							c-0.426,0.188-1.109,0.349-1.53,0.36l-5.506,0.152c-0.405,0.012-0.396-0.129,0.038-0.315l5.729-2.467
							c0.413-0.178,1.079-0.333,1.478-0.346L489.341,321.123z"/>
					</g>
					<g>
						<path fill="#404040" d="M480.58,321.404c0.395-0.013,0.386,0.121-0.029,0.298l-5.756,2.462
							c-0.436,0.187-1.118,0.345-1.52,0.355l-5.362,0.148c-0.402,0.012-0.369-0.127,0.073-0.312l5.849-2.441
							c0.422-0.176,1.079-0.329,1.475-0.342L480.58,321.404z"/>
					</g>
					<g>
						<path fill="#404040" d="M484.826,317.963c0.389-0.015,0.388,0.108-0.004,0.273l-5.432,2.287
							c-0.411,0.173-1.062,0.321-1.458,0.334l-5.184,0.171c-0.382,0.013-0.366-0.113,0.052-0.285l5.519-2.27
							c0.398-0.164,1.034-0.309,1.41-0.322L484.826,317.963z"/>
					</g>
					<g>
						<path fill="#404040" d="M472.033,321.677c0.393-0.013,0.368,0.12-0.056,0.296l-5.874,2.436
							c-0.444,0.185-1.124,0.341-1.523,0.352l-5.217,0.145c-0.392,0.011-0.352-0.126,0.1-0.309l5.96-2.416
							c0.43-0.174,1.094-0.326,1.479-0.338L472.033,321.677z"/>
					</g>
					<g>
						<path fill="#404040" d="M589.469,311.68c0.503-0.021,0.711,0.101,0.458,0.274l-1.821,1.247
							c-0.262,0.179-0.887,0.338-1.397,0.357l-7.376,0.278c-0.5,0.019-0.679-0.108-0.404-0.285l1.913-1.237
							c0.267-0.172,0.87-0.325,1.363-0.345L589.469,311.68z"/>
					</g>
					<g>
						<path fill="#404040" d="M578.369,312.124c0.488-0.02,0.664,0.102,0.395,0.273l-1.935,1.235
							c-0.276,0.177-0.894,0.333-1.39,0.352l-7.166,0.271c-0.485,0.019-0.642-0.107-0.352-0.283l2.021-1.224
							c0.281-0.171,0.886-0.322,1.365-0.341L578.369,312.124z"/>
					</g>
					<g>
						<path fill="#404040" d="M493.278,317.651c0.398-0.015,0.405,0.109,0.021,0.276l-5.313,2.309
							c-0.402,0.175-1.047,0.325-1.453,0.339l-5.316,0.175c-0.399,0.014-0.391-0.114,0.019-0.288l5.406-2.291
							c0.391-0.166,1.02-0.312,1.412-0.326L493.278,317.651z"/>
					</g>
					<g enable-background="new    ">
						<g>
							<path fill="#404040" d="M456.491,325.605c0.393-0.011,0.339,0.133-0.121,0.319l-6.38,2.588
								c-0.483,0.195-1.194,0.359-1.593,0.368l-5.224,0.115c-0.385,0.008-0.313-0.14,0.176-0.334l6.464-2.565
								c0.466-0.185,1.159-0.343,1.538-0.354L456.491,325.605z"/>
						</g>
						<g>
							<path fill="#404040" d="M421.223,334.186c0.289-0.004,0.195,0.121-0.207,0.277l-9.564,3.702
								c-0.43,0.166-1.026,0.305-1.32,0.308l-5.841,0.044c-0.287,0.002-0.166-0.132,0.267-0.297l9.661-3.662
								c0.407-0.154,0.977-0.285,1.259-0.289L421.223,334.186z"/>
						</g>
						<g>
							<path fill="#404040" d="M442.472,329.723c0.396-0.008,0.307,0.147-0.191,0.347l-6.906,2.764
								c-0.522,0.209-1.261,0.382-1.663,0.388l-15.821,0.247c-0.382,0.007-0.255-0.152,0.283-0.356l7.109-2.696
								c0.513-0.194,1.228-0.358,1.604-0.366L442.472,329.723z"/>
						</g>
						<g>
							<path fill="#404040" d="M465.038,325.376c0.403-0.011,0.365,0.134-0.087,0.322l-6.266,2.617
								c-0.475,0.198-1.188,0.363-1.599,0.373l-5.356,0.118c-0.403,0.009-0.347-0.142,0.135-0.338l6.356-2.594
								c0.458-0.187,1.152-0.348,1.549-0.358L465.038,325.376z"/>
						</g>
						<g>
							<path fill="#404040" d="M501.92,317.333c0.409-0.016,0.431,0.109,0.057,0.277l-5.188,2.332
								c-0.393,0.177-1.038,0.328-1.454,0.342l-5.455,0.181c-0.409,0.014-0.416-0.116-0.016-0.291l5.287-2.314
								c0.382-0.167,1.012-0.314,1.414-0.329L501.92,317.333z"/>
						</g>
						<g>
							<path fill="#404040" d="M429.781,334.063c0.297-0.004,0.215,0.123-0.183,0.28l-9.437,3.752
								c-0.423,0.168-1.022,0.31-1.325,0.312l-6.017,0.046c-0.296,0.002-0.186-0.134,0.242-0.301l9.541-3.711
								c0.402-0.156,0.973-0.288,1.264-0.293L429.781,334.063z"/>
						</g>
						<g>
							<path fill="#404040" d="M450.979,329.545c0.406-0.009,0.332,0.148-0.157,0.35l-6.796,2.798
								c-0.516,0.212-1.256,0.387-1.669,0.394l-5.401,0.084c-0.406,0.007-0.312-0.156,0.21-0.366l6.884-2.771
								c0.496-0.2,1.216-0.369,1.615-0.377L450.979,329.545z"/>
						</g>
						<g>
							<path fill="#404040" d="M518.286,314.528c0.415-0.017,0.473,0.1,0.127,0.262l-2.474,1.165
								c-0.354,0.166-0.973,0.313-1.394,0.328l-6.081,0.229c-0.413,0.016-0.459-0.104-0.097-0.27l2.533-1.155
								c0.354-0.161,0.967-0.303,1.375-0.319L518.286,314.528z"/>
						</g>
						<g>
							<path fill="#404040" d="M473.82,325.141c0.414-0.012,0.384,0.135-0.059,0.325l-6.144,2.648
								c-0.466,0.2-1.174,0.368-1.595,0.377l-5.512,0.122c-0.414,0.009-0.365-0.143,0.107-0.342l6.24-2.624
								c0.449-0.188,1.138-0.351,1.545-0.362L473.82,325.141z"/>
						</g>
						<g>
							<path fill="#404040" d="M510.821,317.003c0.419-0.016,0.465,0.11,0.101,0.279l-5.054,2.355
								c-0.382,0.179-1.036,0.332-1.464,0.347l-5.591,0.185c-0.42,0.014-0.451-0.116-0.061-0.293l5.159-2.337
								c0.373-0.169,1.011-0.318,1.424-0.334L510.821,317.003z"/>
						</g>
						<g>
							<path fill="#404040" d="M438.481,333.938c0.305-0.004,0.234,0.124-0.157,0.284l-9.297,3.802
								c-0.418,0.171-1.02,0.313-1.33,0.316l-6.184,0.046c-0.313,0.003-0.206-0.135,0.216-0.304l9.412-3.761
								c0.396-0.158,0.962-0.292,1.269-0.296L438.481,333.938z"/>
						</g>
						<g>
							<path fill="#404040" d="M459.823,329.361c0.418-0.009,0.367,0.149-0.113,0.354l-6.676,2.833
								c-0.506,0.215-1.257,0.392-1.681,0.398l-5.548,0.086c-0.417,0.007-0.346-0.157,0.167-0.37l6.771-2.806
								c0.488-0.202,1.218-0.373,1.628-0.382L459.823,329.361z"/>
						</g>
						<g>
							<path fill="#404040" d="M527.716,314.151c0.427-0.018,0.501,0.1,0.167,0.264l-2.397,1.176
								c-0.343,0.168-0.962,0.315-1.394,0.332l-6.245,0.235c-0.425,0.017-0.48-0.104-0.128-0.271l2.46-1.167
								c0.343-0.162,0.949-0.305,1.368-0.321L527.716,314.151z"/>
						</g>
						<g>
							<path fill="#404040" d="M498.341,320.834c0.416-0.014,0.439,0.122,0.044,0.304l-5.496,2.515
								c-0.416,0.19-1.101,0.353-1.525,0.364l-5.655,0.157c-0.424,0.012-0.431-0.13-0.007-0.318l5.602-2.494
								c0.404-0.18,1.071-0.337,1.487-0.35L498.341,320.834z"/>
						</g>
						<g>
							<path fill="#404040" d="M482.831,324.9c0.426-0.012,0.421,0.136-0.013,0.328l-6.012,2.679
								c-0.456,0.203-1.173,0.373-1.606,0.383l-5.657,0.125c-0.426,0.009-0.401-0.144,0.062-0.345l6.116-2.654
								c0.44-0.191,1.139-0.356,1.556-0.367L482.831,324.9z"/>
						</g>
						<g>
							<path fill="#404040" d="M519.96,316.666c0.423-0.016,0.486,0.111,0.133,0.283l-4.911,2.379
								c-0.371,0.18-1.026,0.335-1.457,0.35l-5.748,0.189c-0.432,0.015-0.479-0.117-0.1-0.295l5.023-2.361
								c0.362-0.17,1.001-0.32,1.424-0.336L519.96,316.666z"/>
						</g>
						<g>
							<path fill="#404040" d="M468.923,329.17c0.429-0.009,0.388,0.151-0.083,0.357l-6.546,2.869
								c-0.496,0.218-1.241,0.396-1.679,0.403l-5.714,0.09c-0.429,0.007-0.367-0.16,0.137-0.376l6.648-2.84
								c0.479-0.205,1.202-0.378,1.623-0.387L468.923,329.17z"/>
						</g>
						<g>
							<path fill="#404040" d="M449.741,333.776c0.315-0.004,0.262,0.126-0.121,0.288l-9.107,3.867
								c-0.409,0.174-1.014,0.319-1.337,0.322l-8.725,0.065c-0.313,0.003-0.228-0.137,0.189-0.309l9.271-3.811
								c0.39-0.16,0.965-0.296,1.272-0.301L449.741,333.776z"/>
						</g>
						<g>
							<path fill="#404040" d="M537.399,313.763c0.438-0.018,0.539,0.1,0.216,0.266l-2.314,1.187
								c-0.332,0.171-0.959,0.32-1.403,0.337l-6.416,0.242c-0.436,0.017-0.51-0.105-0.168-0.274l2.382-1.178
								c0.332-0.164,0.938-0.309,1.368-0.325L537.399,313.763z"/>
						</g>
						<g>
							<path fill="#404040" d="M507.508,320.541c0.435-0.015,0.469,0.123,0.083,0.307l-5.353,2.542
								c-0.405,0.192-1.083,0.356-1.527,0.368l-5.811,0.162c-0.436,0.012-0.452-0.131-0.038-0.322l5.466-2.521
								c0.395-0.182,1.055-0.34,1.482-0.354L507.508,320.541z"/>
						</g>
						<g>
							<path fill="#404040" d="M492.098,324.651c0.437-0.012,0.441,0.138,0.019,0.333l-5.871,2.71
								c-0.445,0.206-1.155,0.378-1.601,0.388l-5.826,0.128c-0.438,0.01-0.423-0.145,0.03-0.349l5.982-2.686
								c0.431-0.193,1.122-0.359,1.551-0.371L492.098,324.651z"/>
						</g>
						<g>
							<path fill="#404040" d="M529.331,316.32c0.442-0.017,0.524,0.111,0.182,0.284l-4.758,2.403
								c-0.36,0.182-1.016,0.339-1.467,0.354l-5.904,0.194c-0.435,0.015-0.5-0.117-0.131-0.298l4.878-2.385
								c0.352-0.172,0.99-0.324,1.417-0.34L529.331,316.32z"/>
						</g>
						<g>
							<path fill="#404040" d="M478.27,328.975c0.441-0.01,0.427,0.152-0.033,0.361l-6.406,2.906c-0.485,0.22-1.24,0.402-1.69,0.409
								l-5.873,0.092c-0.441,0.007-0.405-0.162,0.089-0.38l6.516-2.877c0.469-0.207,1.202-0.383,1.636-0.392L478.27,328.975z"/>
						</g>
						<g>
							<path fill="#404040" d="M547.212,313.371c0.45-0.018,0.57,0.1,0.26,0.268l-2.229,1.198c-0.319,0.172-0.947,0.323-1.403,0.341
								l-6.592,0.248c-0.447,0.018-0.54-0.105-0.21-0.275l2.3-1.189c0.321-0.166,0.927-0.312,1.368-0.329L547.212,313.371z"/>
						</g>
						<g>
							<path fill="#404040" d="M516.986,320.236c0.447-0.014,0.508,0.125,0.134,0.31l-5.199,2.57
								c-0.394,0.195-1.081,0.361-1.537,0.374l-5.964,0.165c-0.448,0.013-0.491-0.132-0.088-0.324l5.32-2.549
								c0.383-0.184,1.052-0.344,1.491-0.358L516.986,320.236z"/>
						</g>
						<g>
							<path fill="#404040" d="M501.546,324.398c0.448-0.012,0.48,0.139,0.068,0.336l-5.721,2.743
								c-0.434,0.208-1.153,0.382-1.611,0.393l-5.992,0.132c-0.441,0.01-0.453-0.147-0.011-0.353l5.84-2.718
								c0.421-0.195,1.121-0.364,1.554-0.376L501.546,324.398z"/>
						</g>
						<g>
							<path fill="#404040" d="M538.96,315.964c0.445-0.017,0.547,0.112,0.216,0.287l-4.595,2.428
								c-0.348,0.184-1.004,0.343-1.459,0.357l-6.065,0.2c-0.456,0.016-0.541-0.118-0.183-0.301l4.723-2.408
								c0.34-0.174,0.979-0.328,1.426-0.344L538.96,315.964z"/>
						</g>
						<g>
							<path fill="#404040" d="M487.893,328.773c0.454-0.009,0.451,0.155,0.001,0.367l-6.254,2.943
								c-0.475,0.224-1.224,0.407-1.687,0.415l-6.056,0.095c-0.454,0.007-0.429-0.164,0.055-0.386l6.373-2.913
								c0.459-0.21,1.186-0.388,1.631-0.396L487.893,328.773z"/>
						</g>
						<g>
							<path fill="#404040" d="M557.429,312.961c0.463-0.019,0.604,0.101,0.306,0.27l-2.136,1.211
								c-0.306,0.173-0.933,0.326-1.402,0.344l-6.777,0.256c-0.451,0.018-0.572-0.106-0.255-0.278l2.211-1.201
								c0.309-0.167,0.923-0.314,1.368-0.333L557.429,312.961z"/>
						</g>
						<g>
							<path fill="#404040" d="M526.733,319.923c0.46-0.015,0.532,0.126,0.169,0.313l-5.033,2.599
								c-0.382,0.197-1.061,0.364-1.53,0.378l-6.142,0.17c-0.461,0.013-0.515-0.133-0.123-0.328l5.163-2.576
								c0.372-0.186,1.033-0.348,1.484-0.362L526.733,319.923z"/>
						</g>
						<g>
							<path fill="#404040" d="M511.325,324.136c0.462-0.013,0.514,0.14,0.114,0.339l-5.558,2.776
								c-0.422,0.211-1.144,0.388-1.615,0.397l-6.157,0.136c-0.463,0.011-0.494-0.147-0.063-0.356l5.687-2.75
								c0.409-0.198,1.11-0.368,1.563-0.381L511.325,324.136z"/>
						</g>
						<g>
							<path fill="#404040" d="M548.84,315.599c0.467-0.017,0.579,0.113,0.261,0.29l-4.421,2.452
								c-0.335,0.186-0.982,0.347-1.459,0.362l-6.234,0.206c-0.468,0.016-0.564-0.119-0.219-0.304l4.557-2.434
								c0.328-0.175,0.959-0.331,1.417-0.348L548.84,315.599z"/>
						</g>
						<g>
							<path fill="#404040" d="M497.718,328.568c0.467-0.01,0.483,0.156,0.046,0.371l-6.093,2.981
								c-0.462,0.227-1.212,0.413-1.689,0.421l-6.236,0.098c-0.459,0.007-0.462-0.166,0.01-0.39l6.221-2.952
								c0.447-0.212,1.184-0.392,1.634-0.401L497.718,328.568z"/>
						</g>
						<g>
							<path fill="#404040" d="M567.72,312.55c0.476-0.02,0.629,0.101,0.345,0.271l-2.039,1.223
								c-0.292,0.175-0.909,0.329-1.392,0.348l-6.967,0.263c-0.473,0.018-0.606-0.106-0.303-0.28l2.12-1.213
								c0.295-0.169,0.9-0.318,1.367-0.337L567.72,312.55z"/>
						</g>
						<g>
							<path fill="#404040" d="M536.743,319.603c0.473-0.016,0.573,0.126,0.224,0.315l-4.857,2.628
								c-0.368,0.199-1.057,0.369-1.54,0.383l-6.309,0.175c-0.474,0.014-0.557-0.134-0.178-0.331l4.996-2.605
								c0.359-0.188,1.029-0.352,1.493-0.367L536.743,319.603z"/>
						</g>
						<g>
							<path fill="#404040" d="M521.394,323.867c0.475-0.013,0.539,0.141,0.151,0.343l-5.383,2.811
								c-0.408,0.213-1.122,0.392-1.607,0.402l-6.349,0.14c-0.476,0.011-0.52-0.149-0.101-0.36l5.521-2.783
								c0.396-0.2,1.09-0.373,1.556-0.386L521.394,323.867z"/>
						</g>
						<g>
							<path fill="#404040" d="M558.99,315.225c0.479-0.018,0.621,0.112,0.316,0.291l-4.235,2.478
								c-0.321,0.188-0.978,0.352-1.467,0.367l-6.402,0.212c-0.481,0.016-0.607-0.12-0.275-0.307l4.381-2.458
								c0.315-0.177,0.955-0.335,1.425-0.353L558.99,315.225z"/>
						</g>
						<g>
							<path fill="#404040" d="M507.9,328.355c0.481-0.01,0.528,0.158,0.104,0.375l-5.917,3.021c-0.449,0.229-1.21,0.42-1.701,0.427
								l-6.418,0.101c-0.481,0.008-0.507-0.168-0.047-0.395l6.056-2.99c0.435-0.216,1.172-0.398,1.644-0.408L507.9,328.355z"/>
						</g>
						<g>
							<path fill="#404040" d="M547.043,319.273c0.477-0.016,0.601,0.127,0.265,0.318l-4.67,2.658
								c-0.354,0.201-1.042,0.374-1.53,0.388l-6.502,0.18c-0.487,0.014-0.593-0.135-0.228-0.334l4.818-2.636
								c0.347-0.189,1.016-0.355,1.493-0.371L547.043,319.273z"/>
						</g>
						<g>
							<path fill="#404040" d="M531.744,323.589c0.488-0.014,0.584,0.142,0.21,0.347l-5.195,2.845
								c-0.395,0.216-1.118,0.397-1.618,0.408l-6.529,0.145c-0.49,0.011-0.565-0.151-0.159-0.365l5.343-2.817
								c0.385-0.203,1.087-0.378,1.566-0.391L531.744,323.589z"/>
						</g>
						<g>
							<path fill="#404040" d="M569.43,314.839c0.492-0.019,0.648,0.113,0.358,0.294l-4.038,2.504
								c-0.306,0.189-0.953,0.354-1.457,0.371l-6.595,0.218c-0.494,0.017-0.634-0.121-0.316-0.31l4.193-2.483
								c0.302-0.179,0.932-0.338,1.415-0.356L569.43,314.839z"/>
						</g>
						<g>
							<path fill="#404040" d="M518.396,328.135c0.496-0.011,0.557,0.16,0.146,0.38l-5.728,3.063
								c-0.436,0.233-1.188,0.425-1.694,0.434l-6.626,0.104c-0.496,0.008-0.535-0.17-0.089-0.4l5.877-3.031
								c0.422-0.217,1.151-0.402,1.638-0.412L518.396,328.135z"/>
						</g>
						<g>
							<path fill="#404040" d="M498.953,333.039c0.494-0.007,0.515,0.179,0.055,0.414l-7.811,3.992
								c-0.493,0.253-1.292,0.457-1.799,0.461l-47.274,0.355c-0.438,0.003-0.356-0.182,0.194-0.417l8.733-3.729
								c0.517-0.221,1.285-0.404,1.716-0.41L498.953,333.039z"/>
						</g>
						<g>
							<path fill="#404040" d="M557.629,318.933c0.499-0.016,0.637,0.128,0.315,0.321l-4.468,2.689
								c-0.339,0.204-1.019,0.378-1.53,0.393l-6.694,0.186c-0.492,0.014-0.621-0.137-0.27-0.339l4.626-2.665
								c0.333-0.191,1.003-0.36,1.484-0.375L557.629,318.933z"/>
						</g>
						<g>
							<path fill="#404040" d="M542.407,323.303c0.503-0.014,0.612,0.144,0.254,0.351l-4.995,2.881
								c-0.379,0.219-1.093,0.402-1.608,0.414l-6.737,0.148c-0.506,0.011-0.595-0.153-0.203-0.37l5.152-2.853
								c0.371-0.205,1.064-0.382,1.558-0.395L542.407,323.303z"/>
						</g>
						<g>
							<path fill="#404040" d="M529.202,327.91c0.511-0.011,0.605,0.161,0.209,0.384l-5.524,3.104
								c-0.42,0.236-1.182,0.432-1.705,0.439l-6.824,0.107c-0.513,0.008-0.584-0.172-0.152-0.405l5.685-3.072
								c0.408-0.221,1.147-0.408,1.647-0.419L529.202,327.91z"/>
						</g>
						<g>
							<path fill="#404040" d="M568.521,318.583c0.515-0.016,0.686,0.129,0.38,0.325l-4.253,2.72
								c-0.322,0.207-1.011,0.384-1.538,0.398l-6.885,0.19c-0.518,0.015-0.67-0.137-0.334-0.342l4.422-2.695
								c0.317-0.194,0.986-0.364,1.491-0.381L568.521,318.583z"/>
						</g>
						<g>
							<path fill="#404040" d="M585.748,314.237c0.514-0.02,0.716,0.114,0.448,0.297l-3.714,2.544
								c-0.282,0.193-0.937,0.361-1.463,0.379l-12.844,0.424c-0.509,0.017-0.671-0.122-0.368-0.313l3.999-2.509
								c0.288-0.181,0.917-0.342,1.413-0.359L585.748,314.237z"/>
						</g>
						<g>
							<path fill="#404040" d="M512.467,332.874c0.381-0.005,0.426,0.136,0.099,0.313l-7.809,4.227
								c-0.352,0.191-0.966,0.352-1.357,0.354l-10.569,0.079c-0.389,0.003-0.39-0.149-0.026-0.337l8.08-4.16
								c0.339-0.175,0.913-0.323,1.292-0.328L512.467,332.874z"/>
						</g>
						<g>
							<path fill="#404040" d="M553.379,323.009c0.518-0.014,0.662,0.145,0.318,0.354l-4.778,2.917
								c-0.363,0.222-1.087,0.408-1.618,0.42l-6.936,0.153c-0.521,0.012-0.645-0.154-0.269-0.374l4.949-2.889
								c0.355-0.207,1.058-0.387,1.565-0.4L553.379,323.009z"/>
						</g>
						<g>
							<path fill="#404040" d="M540.35,327.676c0.526-0.011,0.638,0.163,0.257,0.39l-5.305,3.147
								c-0.403,0.239-1.156,0.438-1.695,0.446l-7.053,0.109c-0.528,0.009-0.616-0.174-0.2-0.41l5.478-3.114
								c0.393-0.224,1.122-0.414,1.639-0.425L540.35,327.676z"/>
						</g>
						<g>
							<path fill="#404040" d="M579.742,318.224c0.529-0.017,0.717,0.13,0.428,0.328l-4.021,2.752
								c-0.306,0.209-0.983,0.388-1.526,0.403l-7.105,0.196c-0.532,0.016-0.701-0.139-0.382-0.346l4.203-2.727
								c0.302-0.196,0.961-0.369,1.479-0.386L579.742,318.224z"/>
						</g>
						<g>
							<path fill="#404040" d="M523.754,332.711c0.393-0.006,0.458,0.138,0.142,0.317l-7.531,4.292
								c-0.34,0.193-0.955,0.356-1.359,0.359l-8.029,0.061c-0.405,0.003-0.431-0.152-0.081-0.344l7.758-4.239
								c0.325-0.178,0.9-0.328,1.294-0.334L523.754,332.711z"/>
						</g>
						<g>
							<path fill="#404040" d="M573.618,322.482c0.547-0.015,0.739,0.147,0.427,0.362l-4.359,2.984
								c-0.331,0.228-1.054,0.419-1.616,0.431l-16.334,0.36c-0.537,0.012-0.677-0.157-0.317-0.379l4.73-2.927
								c0.34-0.21,1.032-0.392,1.556-0.405L573.618,322.482z"/>
						</g>
						<g>
							<path fill="#404040" d="M530.908,335.112c0.557-0.007,0.652,0.197,0.226,0.455l-2.635,1.588
								c-0.44,0.266-1.251,0.486-1.815,0.49l-8.105,0.061c-0.541,0.005-0.616-0.206-0.161-0.469l2.727-1.566
								c0.442-0.255,1.243-0.466,1.776-0.472L530.908,335.112z"/>
						</g>
						<g>
							<path fill="#404040" d="M547.342,332.345c0.565-0.009,0.699,0.188,0.309,0.438l-3.087,1.979l-10.29,0.115l3.211-1.954
								c0.406-0.247,1.186-0.454,1.728-0.462L547.342,332.345z"/>
						</g>
						<g>
							<path fill="#404040" d="M566.593,327.127c0.564-0.012,0.738,0.168,0.397,0.4l-4.749,3.249
								c-0.361,0.247-1.113,0.452-1.694,0.461l-22.741,0.355c-0.546,0.009-0.659-0.177-0.26-0.416l5.261-3.156
								c0.377-0.227,1.106-0.419,1.638-0.431L566.593,327.127z"/>
						</g>
						<g>
							<path fill="#404040" d="M544.211,334.99l-3.203,2.054c-0.421,0.27-1.23,0.494-1.814,0.498l-8.387,0.063
								c-0.56,0.004-0.666-0.21-0.229-0.477l3.329-2.026L544.211,334.99z"/>
						</g>
						<g>
							<path fill="#404040" d="M555.682,334.84c0.595-0.007,0.766,0.204,0.378,0.47l-2.392,1.64
								c-0.399,0.274-1.22,0.503-1.824,0.507l-8.667,0.065c-0.59,0.004-0.728-0.214-0.31-0.484l2.498-1.617
								c0.405-0.263,1.206-0.48,1.787-0.486L555.682,334.84z"/>
						</g>
					</g>
					<g>
						<path fill="#404040" d="M474.875,316.265c0.359-0.015,0.349,0.097-0.041,0.252l-2.79,1.111
							c-0.399,0.159-1.021,0.297-1.384,0.311l-5.354,0.202c-0.363,0.014-0.336-0.101,0.069-0.259l2.834-1.103
							c0.396-0.154,1.003-0.288,1.363-0.303L474.875,316.265z"/>
					</g>
					<g>
						<path fill="#404040" d="M468.497,318.566c0.37-0.014,0.342,0.107-0.066,0.27l-5.646,2.243
							c-0.427,0.17-1.074,0.315-1.451,0.327l-4.932,0.163c-0.364,0.012-0.32-0.112,0.112-0.28l5.723-2.228
							c0.414-0.16,1.047-0.302,1.404-0.315L468.497,318.566z"/>
					</g>
					<g>
						<path fill="#404040" d="M509.279,314.888c0.404-0.016,0.453,0.099,0.098,0.26l-2.545,1.153
							c-0.364,0.165-0.989,0.31-1.399,0.325l-5.926,0.224c-0.403,0.016-0.426-0.104-0.054-0.268l2.601-1.145
							c0.362-0.159,0.968-0.299,1.365-0.315L509.279,314.888z"/>
					</g>
					<g>
						<path fill="#404040" d="M500.321,315.247c0.395-0.016,0.42,0.099,0.056,0.258l-2.613,1.143
							c-0.374,0.164-0.99,0.307-1.39,0.321l-5.775,0.219c-0.392,0.015-0.399-0.104-0.018-0.266l2.664-1.134
							c0.372-0.158,0.976-0.297,1.364-0.313L500.321,315.247z"/>
					</g>
					<g>
						<path fill="#404040" d="M491.703,315.591c0.385-0.015,0.396,0.099,0.021,0.256l-2.675,1.133
							c-0.383,0.162-0.999,0.303-1.389,0.317l-5.63,0.213c-0.383,0.015-0.376-0.103,0.014-0.264l2.725-1.123
							c0.38-0.157,0.983-0.294,1.361-0.309L491.703,315.591z"/>
					</g>
					<g>
						<path fill="#404040" d="M483.185,315.932c0.375-0.015,0.372,0.098-0.011,0.254l-2.734,1.122
							c-0.392,0.16-1.006,0.3-1.386,0.314l-5.49,0.207c-0.373,0.015-0.358-0.102,0.039-0.261l2.78-1.113
							c0.389-0.155,0.998-0.291,1.367-0.306L483.185,315.932z"/>
					</g>
				</g>
				<path fill="#C2C2C2" d="M614.104,313.894l-3.414,2.713c-0.401,0.319-0.985,0.252-1.304-0.149l0,0
					c-0.319-0.4-0.252-0.984,0.149-1.304l3.414-2.713c0.401-0.319,0.985-0.252,1.304,0.149l0,0
					C614.573,312.992,614.506,313.575,614.104,313.894z"/>
				<g opacity="0.2">
					<polygon fill="#FFFFFF" points="486.685,313.306 502.742,312.75 603.967,167.773 585.907,171.195 					"/>
					<polygon fill="#FFFFFF" points="477.925,313.61 576.058,173.061 539.939,179.904 445.809,314.721 					"/>
				</g>
			</g>
		</g>
		<g>
			<defs>
				<rect id="SVGID_15_" x="65.074" y="66.654" width="619.853" height="366.692"/>
			</defs>
			<clipPath id="SVGID_16_">
				<use xlink:href="#SVGID_15_"  overflow="visible"/>
			</clipPath>
			
				<linearGradient id="SVGID_17_" gradientUnits="userSpaceOnUse" x1="432.2842" y1="373.23" x2="348.541" y2="289.4868" gradientTransform="matrix(1 0 -1 1 645.1724 0)">
				<stop  offset="0" style="stop-color:#FF5DC9"/>
				<stop  offset="1" style="stop-color:#785DFF"/>
			</linearGradient>
			<path clip-path="url(#SVGID_16_)" fill="url(#SVGID_17_)" d="M634.569,407.314L634.569,407.314
				c-5.612,0-8.423-6.785-4.454-10.753L769.43,257.247c1.181-1.182,2.783-1.845,4.454-1.845l0,0c5.611,0,8.423,6.785,4.454,10.753
				L639.023,405.469C637.842,406.651,636.239,407.314,634.569,407.314z"/>
			
				<linearGradient id="SVGID_18_" gradientUnits="userSpaceOnUse" x1="-382.7432" y1="244.8809" x2="-466.4856" y2="161.1384" gradientTransform="matrix(1 0 -1 1 645.1724 0)">
				<stop  offset="0" style="stop-color:#FF5DC9"/>
				<stop  offset="1" style="stop-color:#785DFF"/>
			</linearGradient>
			<path clip-path="url(#SVGID_16_)" fill="url(#SVGID_18_)" d="M-52.108,278.966L-52.108,278.966
				c-5.612,0-8.423-6.785-4.455-10.754L82.752,128.898c1.181-1.181,2.783-1.845,4.454-1.845l0,0c5.612,0,8.422,6.785,4.454,10.753
				L-47.654,277.121C-48.836,278.302-50.438,278.966-52.108,278.966z"/>
			
				<linearGradient id="SVGID_19_" gradientUnits="userSpaceOnUse" x1="-217.1289" y1="81.6162" x2="-270.8607" y2="27.8844" gradientTransform="matrix(1 0 -1 1 645.1724 0)">
				<stop  offset="0" style="stop-color:#785DFF"/>
				<stop  offset="1" style="stop-color:#FF5DC9"/>
			</linearGradient>
			<path clip-path="url(#SVGID_16_)" fill="url(#SVGID_19_)" d="M306.782,100.695L306.782,100.695
				c-5.612,0-8.423-6.785-4.454-10.753l79.292-79.292c1.181-1.181,2.783-1.845,4.454-1.845l0,0c5.611,0,8.422,6.785,4.454,10.753
				L311.236,98.85C310.055,100.031,308.452,100.695,306.782,100.695z"/>
			
				<linearGradient id="SVGID_20_" gradientUnits="userSpaceOnUse" x1="33.4658" y1="480.8003" x2="-20.2653" y2="427.0692" gradientTransform="matrix(1 0 -1 1 645.1724 0)">
				<stop  offset="0" style="stop-color:#785DFF"/>
				<stop  offset="1" style="stop-color:#FF5DC9"/>
			</linearGradient>
			<path clip-path="url(#SVGID_16_)" fill="url(#SVGID_20_)" d="M158.192,499.879L158.192,499.879
				c-5.612,0-8.423-6.785-4.455-10.754l79.292-79.291c1.181-1.182,2.784-1.845,4.454-1.845l0,0c5.612,0,8.423,6.785,4.455,10.753
				l-79.292,79.292C161.465,499.215,159.863,499.879,158.192,499.879z"/>
		</g>
	</g>
</g>
</svg>
