<?xml version="1.0" encoding="iso-8859-1"?>
<!-- Generator: Adobe Illustrator 19.0.0, SVG Export Plug-In . SVG Version: 6.00 Build 0)  -->
<svg version="1.1" id="Capa_1" xmlns="http://www.w3.org/2000/svg" xmlns:xlink="http://www.w3.org/1999/xlink" x="0px" y="0px"
	 viewBox="0 0 512 512" style="enable-background:new 0 0 512 512;" xml:space="preserve">
<polygon style="fill:#F3C432;" points="512,256 452.1,300.8 486.7,367.1 413.3,381.4 415.6,456.2 343.3,437.3 313,505.6 256,457.1 
	199,505.6 168.7,437.3 96.4,456.1 98.7,381.4 25.3,367.1 59.9,300.8 0,256 59.9,211.2 25.3,144.9 98.7,130.6 96.4,55.8 168.7,74.7 
	199,6.4 256,54.9 313,6.4 343.3,74.7 415.6,55.9 413.3,130.6 486.7,144.9 452.1,211.2 "/>
<circle style="fill:#FFD83B;" cx="256" cy="256" r="163.7"/>
<rect x="215.5" y="212" style="fill:#3E4347;" width="81.1" height="17.2"/>
<g>
	<path style="fill:#65B1EF;" d="M274.2,195v55.3c0,13.2,10.8,24,24,24H381c13.2,0,24-10.8,24-24V195H274.2L274.2,195z"/>
	<path style="fill:#65B1EF;" d="M107,195v55.3c0,13.2,10.8,24,24,24h82.8c13.2,0,24-10.8,24-24V195H107L107,195z"/>
</g>
<g>
	<path style="fill:#59A5E0;" d="M180.2,195l-68.9,68.9c3.5,5,8.8,8.7,15.1,9.9l78.9-78.9L180.2,195L180.2,195z"/>
	<path style="fill:#59A5E0;" d="M161.9,195L107,249.9v0.4c0,2.6,0.5,5,1.2,7.3l62.6-62.6L161.9,195L161.9,195z"/>
	<path style="fill:#59A5E0;" d="M346.8,195l-68.6,68.6c3.4,5.1,8.7,8.8,14.8,10.2l78.8-78.8L346.8,195L346.8,195z"/>
	<path style="fill:#59A5E0;" d="M328.5,195l-54.3,54.3v1c0,2.4,0.4,4.7,1.1,6.8l62.2-62.2L328.5,195L328.5,195z"/>
</g>
<path style="fill:#3E4347;" d="M403,197.2H109c-8,0-14.4-6.5-14.4-14.4l0,0c0-8,6.5-14.4,14.4-14.4h294c8,0,14.4,6.5,14.4,14.4l0,0
	C417.5,190.7,411,197.2,403,197.2z"/>
<path style="fill:#3F4347;" d="M321.3,323.2c-12.6,26.4-36,38.1-65.3,38.2c-28.3,0.1-53.7-12.9-65.3-38.2
	c16,5.9,35.7,16.3,65.3,15.9C286.8,339.6,305.3,329,321.3,323.2z"/>
<g>
</g>
<g>
</g>
<g>
</g>
<g>
</g>
<g>
</g>
<g>
</g>
<g>
</g>
<g>
</g>
<g>
</g>
<g>
</g>
<g>
</g>
<g>
</g>
<g>
</g>
<g>
</g>
<g>
</g>
</svg>
